<svg xmlns="http://www.w3.org/2000/svg" viewBox="0 0 2802 489.58"><defs><style>.cls-1{fill:#c8a2c8;}.cls-2{fill:#89ac76;}.cls-3{fill:#0e0e0e;}</style></defs><title>g-color-logo</title><g id="Слой_2" data-name="Слой 2"><g id="Слой_1-2" data-name="Слой 1"><path class="cls-1" d="M6,489.17H6A8.7,8.7,0,0,1,.41,478.26L151.2,6a8.67,8.67,0,0,1,15.89-1.5h0c10.82,19.87,107.76,198,141.51,260a8.67,8.67,0,0,0,15.24,0c33.75-62,130.69-240.14,141.5-260h0A8.69,8.69,0,0,1,481.24,6l25.27,79.15a8.68,8.68,0,0,1-5.63,10.91h0A8.68,8.68,0,0,1,490,90.47L477.06,50a8.68,8.68,0,0,0-15.89-1.51L327.58,294l-3.74,6.86a8.68,8.68,0,0,1-15.25,0L304.86,294S213.14,125.48,171.27,48.53A8.68,8.68,0,0,0,155.38,50L17,483.54A8.68,8.68,0,0,1,6,489.17Z"/><rect class="cls-2" x="564.59" y="148.17" width="17.36" height="349.27" rx="8.68" ry="8.68" transform="translate(-71.03 189.68) rotate(-17.71)"/><circle class="cls-3" cx="421.52" cy="388.92" r="29.69"/><circle class="cls-3" cx="210.92" cy="388.92" r="29.69"/><path class="cls-3" d="M835.34,398.11V91.1h39L978,257.61,1082,91.1h39v307h-39V165.51L993.91,303.84H962.48L874.35,165.51v232.6Z"/><path class="cls-3" d="M1192.56,129.75v95.36h138.69v39H1192.56v95h145.19v39h-184.2V91.1h181v38.65Z"/><path class="cls-3" d="M1482.22,91.1h41.54l124.25,307h-41.54l-32.87-80.9H1432.38l-32.87,80.9H1358Zm76.21,188.18-55.26-136.89-55.62,136.89Z"/><path class="cls-3" d="M1738.3,398.11l-119.55-307h41.54L1758.89,345l99-253.92h41.53l-119.55,307Z"/><path class="cls-3" d="M1959,129.75v95.36h138.69v39H1959v95h145.19v39H1920V91.1h180.95v38.65Z"/><path class="cls-3" d="M2133.44,398.11V91.1h107.27c62.48,0,104.74,36.85,104.74,97.16,0,46.24-25.64,80.55-65.73,93.19l77.65,116.66h-46.23l-73.32-111.24h-65.38V398.11Zm39-268.36V247.86H2244c36.12,0,62.49-24.56,62.49-59.6s-26.73-58.51-65.74-58.51Z"/><path class="cls-3" d="M2411.92,306c2.53,33.95,34.31,57.07,71.15,57.07,37.93,0,67.18-20.23,67.54-50.57.36-35.39-31.42-46.23-65.73-54.54-47.32-11.55-102.22-19.14-102.22-86,.36-56.34,45.15-82.71,99.69-82.71,52.73,0,98.6,28.53,100.05,84.52h-38.65c-2.53-30.7-29.26-47.32-61.4-47.32-33.59,0-60.68,15.53-61,44.79-.36,35,32.5,40.81,70.43,49.84,46.23,10.84,98.24,28.54,97.88,91-.36,50.93-45.87,87.77-106.19,88.13-58.15,0-108-35-110.16-94.27Z"/><path class="cls-3" d="M2656.8,129.75v95.36h138.7v39H2656.8v95H2802v39H2617.79V91.1h181v38.65Z"/></g></g></svg>