<svg xmlns="http://www.w3.org/2000/svg" viewBox="0 0 1821.31 1409.9"><title>meaverse logo simple</title><g id="Слой_2" data-name="Слой 2"><g id="Слой_1-2" data-name="Слой 1"><path d="M17.4,1408.71h0a25,25,0,0,1-16.21-31.42L435.43,17.41c6.69-21,35.25-23.68,45.77-4.35h0l407.5,748.8a25,25,0,0,0,43.91,0L1340.1,13.06h0c10.52-19.34,39.08-16.63,45.78,4.34l72.78,227.94a25,25,0,0,1-16.21,31.42h0A25,25,0,0,1,1411,260.55l-37.18-116.44c-6.69-21-35.25-23.68-45.77-4.35l-384.72,707-10.75,19.75a25,25,0,0,1-43.91,0L878,846.71,493.23,139.76c-10.52-19.33-39.08-16.61-45.78,4.35L48.82,1392.5A25,25,0,0,1,17.4,1408.71Z"/><rect x="1625.92" y="426.69" width="50" height="1005.84" rx="25" ry="25" transform="translate(-204.54 546.23) rotate(-17.71)"/><circle cx="1213.9" cy="1120.03" r="85.5"/><circle cx="607.4" cy="1120.03" r="85.5"/></g></g></svg>