<svg xmlns="http://www.w3.org/2000/svg" viewBox="0 0 1767.99 1575.87"><defs><style>.cls-1{font-size:400px;font-family:Rota-SemiBold, Rota;font-weight:700;}.cls-2{letter-spacing:0.01em;}.cls-3{letter-spacing:-0.08em;}.cls-4{letter-spacing:0em;}.cls-5{letter-spacing:-0.01em;}.cls-6{letter-spacing:0em;}</style></defs><title>meaverse logo vertical</title><g id="Слой_2" data-name="Слой 2"><g id="Слой_1-2" data-name="Слой 1"><path d="M228.72,1033.4h0a18.35,18.35,0,0,1-11.89-23.05L535.38,12.77C540.29-2.61,561.24-4.6,569,9.58h0L867.89,558.89a18.34,18.34,0,0,0,32.21,0C971.38,427.9,1176.19,51.57,1199,9.58h0c7.72-14.18,28.67-12.2,33.58,3.18L1286,180A18.35,18.35,0,0,1,1274.12,203h0a18.33,18.33,0,0,1-23-11.89l-27.28-85.42c-4.91-15.38-25.86-17.37-33.58-3.19L908,621.13l-7.88,14.49a18.34,18.34,0,0,1-32.22,0L860,621.13,577.78,102.53c-7.72-14.18-28.67-12.19-33.58,3.19L251.77,1021.51A18.34,18.34,0,0,1,228.72,1033.4Z"/><rect x="1408.71" y="313.01" width="36.68" height="737.87" rx="18.34" ry="18.34" transform="translate(-139.81 466.4) rotate(-17.71)"/><circle cx="1106.46" cy="821.63" r="62.72"/><circle cx="661.54" cy="821.63" r="62.72"/><text class="cls-1" transform="translate(0 1469.95)">M<tspan class="cls-2" x="281.6" y="0">E</tspan><tspan class="cls-3" x="474.23" y="0">A</tspan><tspan class="cls-4" x="705.91" y="0">VE</tspan><tspan class="cls-5" x="1149.75" y="0">R</tspan><tspan class="cls-6" x="1364.79" y="0">S</tspan><tspan x="1578.88" y="0">E</tspan></text></g></g></svg>